#!OML:ASF X:\für Bonn\!DataBase\2005_08_11_Bastian_Final\c3d\Bastian.ASF
:FULLY-SPECIFIED
:DEGREES
654
root -0.265649 1.12062 26.1152 -995.303 -1.87514 -900.713
lowerback 3.90927 -2.45057 -0.415968
upperback 8.28028 -3.854 -0.379724
thorax 6.42551 -2.21884 -0.263598
lowerneck -25.1248 0.27458 8.13856
upperneck 13.2342 -1.98056 -1.8866
head 8.07263 -0.66588 -2.20515
rclavicle -3.18055e-015 2.50469e-014
rhumerus -82.9121 67.2884 -134.961
rradius 29.5276
rwrist -17.271
rhand -15.2995 -2.38305
rfingers 7.12502
rthumb 10.8759 -32.0814
lclavicle -3.18055e-015 2.50469e-014
lhumerus -221.293 -136.657 271.111
lradius 17.5508
lwrist 28.1627
lhand -10.2131 -4.13291
lfingers 7.12502
lthumb 15.7784 25.244
rfemur -5.39302 3.21211 22.0893
rtibia 31.8534
rfoot -9.31955 -24.4276
rtoes -11.2673
lfemur 0.93037 2.95703 -17.241
ltibia 19.3949
lfoot -6.23138 13.9407
ltoes 8.95253
655
root -0.265165 1.12042 26.1154 -995.291 -1.90001 -900.699
lowerback 3.89291 -2.46978 -0.467592
upperback 8.25592 -3.87599 -0.380606
thorax 6.41197 -2.23112 -0.236101
lowerneck -25.3112 0.31648 8.22638
upperneck 13.2015 -1.96142 -1.92684
head 8.09104 -0.656395 -2.23115
rclavicle 2.70347e-014 -4.8901e-014
rhumerus -83.2459 67.3371 -135.297
rradius 29.5548
rwrist -17.3202
rhand -15.2814 -2.40834
rfingers 7.12502
rthumb 10.8933 -32.1058
lclavicle 2.70347e-014 -4.8901e-014
lhumerus -221.266 -136.742 271.086
lradius 17.4514
lwrist 28.0929
lhand -10.1931 -4.17333
lfingers 7.12502
lthumb 15.7977 25.2021
rfemur -5.41206 3.22058 22.0634
rtibia 31.8648
rfoot -9.33243 -24.4269
rtoes -11.224
lfemur 0.930295 2.91739 -17.2703
ltibia 19.3742
lfoot -6.277 13.9526
ltoes 9.25692
656
root -0.26533 1.12028 26.114 -995.291 -1.87663 -900.703
lowerback 3.88528 -2.48189 -0.46231
upperback 8.24178 -3.89174 -0.365091
thorax 6.40195 -2.23852 -0.222997
lowerneck -25.5179 0.369188 8.33355
upperneck 13.1649 -1.93188 -1.99225
head 8.11135 -0.643929 -2.26752
rclavicle 0 -1.94809e-014
rhumerus -83.5664 67.391 -135.624
rradius 29.5642
rwrist -17.4114
rhand -15.2864 -2.42125
rfingers 7.12502
rthumb 10.8885 -32.1189
lclavicle 0 -1.94809e-014
lhumerus -221.215 -136.825 271.058
lradius 17.3479
lwrist 28.039
lhand -10.1563 -4.24929
lfingers 7.12502
lthumb 15.8331 25.1233
rfemur -5.41454 3.22705 22.0908
rtibia 31.8796
rfoot -9.38781 -24.4208
rtoes -11.1583
lfemur 0.928525 2.91678 -17.2442
ltibia 19.3754
lfoot -6.25043 13.9489
ltoes 9.13822
657
root -0.26519 1.12036 26.1161 -995.291 -1.90001 -900.699
lowerback 3.8729 -2.48874 -0.47871
upperback 8.23669 -3.8973 -0.396617
thorax 6.40233 -2.24021 -0.247137
lowerneck -25.7323 0.410717 8.46643
upperneck 13.1247 -1.93576 -2.00366
head 8.13038 -0.638868 -2.29377
rclavicle 2.54444e-014 3.97569e-016
rhumerus -83.8094 67.4221 -135.927
rradius 29.5892
rwrist -17.5107
rhand -15.2935 -2.44572
rfingers 7.12502
rthumb 10.8817 -32.1438
lclavicle 2.54444e-014 3.97569e-016
lhumerus -221.129 -136.937 270.905
lradius 17.2841
lwrist 27.8507
lhand -10.1205 -4.26006
lfingers 7.12502
lthumb 15.8676 25.1098
rfemur -5.42087 3.19104 22.0528
rtibia 31.8904
rfoot -9.39381 -24.3584
rtoes -11.0859
lfemur 0.930244 2.91543 -17.271
ltibia 19.3732
lfoot -6.26032 13.9623
ltoes 9.00704
658
root -0.265192 1.1204 26.1152 -995.268 -1.89951 -900.689
lowerback 3.8435 -2.50946 -0.498629
upperback 8.20751 -3.92109 -0.391336
thorax 6.38946 -2.25131 -0.231375
lowerneck -25.9277 0.470942 8.57609
upperneck 13.1257 -1.89876 -2.06532
head 8.16215 -0.621594 -2.32869
rclavicle -3.18055e-015 -1.39149e-014
rhumerus -84.0935 67.4581 -136.227
rradius 29.5868
rwrist -17.5397
rhand -15.2661 -2.4542
rfingers 7.12502
rthumb 10.9081 -32.1509
lclavicle -3.18055e-015 -1.39149e-014
lhumerus -221.088 -137.05 270.854
lradius 17.1907
lwrist 27.7855
lhand -10.0569 -4.32531
lfingers 7.12502
lthumb 15.9289 25.0396
rfemur -5.45222 3.19876 22.0543
rtibia 31.9037
rfoot -9.41596 -24.3568
rtoes -10.9598
lfemur 0.898379 2.91949 -17.27
ltibia 19.3799
lfoot -6.22391 13.9474
ltoes 8.87746
659
root -0.265104 1.11993 26.1153 -995.258 -1.87554 -900.683
lowerback 3.83599 -2.5228 -0.488755
upperback 8.1861 -3.93743 -0.378083
thorax 6.37109 -2.25816 -0.222789
lowerneck -26.1312 0.506725 8.65594
upperneck 13.1036 -1.88912 -2.10073
head 8.18631 -0.616036 -2.35327
rclavicle -3.18055e-015 -1.23246e-014
rhumerus -84.4463 67.5029 -136.583
rradius 29.6145
rwrist -17.644
rhand -15.2733 -2.47878
rfingers 7.12502
rthumb 10.9012 -32.1758
lclavicle -3.18055e-015 -1.23246e-014
lhumerus -221.047 -137.119 270.832
lradius 17.0875
lwrist 27.7354
lhand -10.0371 -4.37616
lfingers 7.12502
lthumb 15.9479 24.9873
rfemur -5.46698 3.20035 22.0819
rtibia 31.9098
rfoot -9.43704 -24.3335
rtoes -10.9462
lfemur 0.89707 2.88096 -17.244
ltibia 19.3679
lfoot -6.25814 13.9627
ltoes 9.28948
